<svg height="512" viewBox="0 0 512 512" width="512" xmlns="http://www.w3.org/2000/svg" xmlns:xlink="http://www.w3.org/1999/xlink"><linearGradient id="a" gradientUnits="userSpaceOnUse" x1="-6.281" x2="494.879" y1="478.281" y2="-22.879" data-name="New Gradient Swatch 1"><stop offset="0" stop-color="#003f8a"/><stop offset=".518" stop-color="#00d7df"/><stop offset="1" stop-color="#006df0"/></linearGradient><linearGradient id="b" x1="153.719" x2="654.879" xlink:href="#a" y1="638.281" y2="137.121"/><linearGradient id="c" x1="16.653" x2="517.813" xlink:href="#a" y1="501.215" y2=".054"/><linearGradient id="d" x1="-26.281" x2="474.879" xlink:href="#a" y1="458.281" y2="-42.879"/><linearGradient id="e" x1="-82.281" x2="418.879" xlink:href="#a" y1="402.281" y2="-98.879"/><g><path d="m96 352a24 24 0 1 0 24 24 24.027 24.027 0 0 0 -24-24zm0 32a8 8 0 1 1 8-8 8.009 8.009 0 0 1 -8 8z" fill="url(#a)"/><path d="m416 352a24 24 0 1 0 24 24 24.027 24.027 0 0 0 -24-24zm0 32a8 8 0 1 1 8-8 8.009 8.009 0 0 1 -8 8z" fill="url(#b)"/><path d="m476 128h-440a28.031 28.031 0 0 0 -28 28v220a8 8 0 0 0 8 8h32.68a47.99 47.99 0 0 0 94.64 0h225.36a47.99 47.99 0 0 0 94.64 0h32.68a8 8 0 0 0 8-8v-220a28.031 28.031 0 0 0 -28-28zm-380 280a32 32 0 1 1 32-32 32.03 32.03 0 0 1 -32 32zm248-40h-64v-16h64zm0-32h-64v-144h64zm72 72a32 32 0 1 1 32-32 32.03 32.03 0 0 1 -32 32zm72-136h-96v-80h96zm0-96h-104a8 8 0 0 0 -8 8v96a8 8 0 0 0 8 8h104v80h-24.68a47.99 47.99 0 0 0 -94.64 0h-8.68v-184a8 8 0 0 0 -8-8h-80a8 8 0 0 0 -8 8v184h-120.68a47.99 47.99 0 0 0 -94.64 0h-24.68v-212a12.01 12.01 0 0 1 12-12h440a12.01 12.01 0 0 1 12 12z" fill="url(#c)"/><path d="m240 176h-80a8 8 0 0 0 -8 8v96a8 8 0 0 0 8 8h80a8 8 0 0 0 8-8v-96a8 8 0 0 0 -8-8zm-8 96h-64v-80h64z" fill="url(#d)"/><path d="m128 176h-80a8 8 0 0 0 -8 8v96a8 8 0 0 0 8 8h80a8 8 0 0 0 8-8v-96a8 8 0 0 0 -8-8zm-8 96h-64v-80h64z" fill="url(#e)"/></g></svg>