<svg height="512" viewBox="0 0 512 512" width="512" xmlns="http://www.w3.org/2000/svg" xmlns:xlink="http://www.w3.org/1999/xlink"><linearGradient id="a" gradientUnits="userSpaceOnUse" x1="8.852" x2="544.095" y1="519.148" y2="-16.095" data-name="New Gradient Swatch 1"><stop offset="0" stop-color="#003f8a"/><stop offset=".518" stop-color="#00d7df"/><stop offset="1" stop-color="#006df0"/></linearGradient><linearGradient id="b" x1="-27.148" x2="508.095" xlink:href="#a" y1="483.148" y2="-52.095"/><linearGradient id="c" x1="-67.148" x2="468.095" xlink:href="#a" y1="443.148" y2="-92.095"/><linearGradient id="d" x1="-107.148" x2="428.095" xlink:href="#a" y1="403.148" y2="-132.095"/><linearGradient id="e" x1="12.852" x2="548.095" xlink:href="#a" y1="523.148" y2="-12.095"/><linearGradient id="f" x1="52.852" x2="588.095" xlink:href="#a" y1="563.148" y2="27.905"/><linearGradient id="k" x1="92.852" x2="628.095" xlink:href="#a" y1="603.148" y2="67.905"/><g><path d="m472 40h-24v-24a8 8 0 0 0 -8-8h-48a8 8 0 0 0 -8 8v24h-96v-24a8 8 0 0 0 -8-8h-48a8 8 0 0 0 -8 8v24h-96v-24a8 8 0 0 0 -8-8h-48a8 8 0 0 0 -8 8v24h-24a32.036 32.036 0 0 0 -32 32v400a32.036 32.036 0 0 0 32 32h432a32.036 32.036 0 0 0 32-32v-400a32.036 32.036 0 0 0 -32-32zm-72-16h32v48h-32zm-160 0h32v48h-32zm-160 0h32v48h-32zm408 448a16.021 16.021 0 0 1 -16 16h-432a16.021 16.021 0 0 1 -16-16v-20.31a31.705 31.705 0 0 0 16 4.31h432a31.705 31.705 0 0 0 16-4.31zm0-48a16.021 16.021 0 0 1 -16 16h-432a16.021 16.021 0 0 1 -16-16v-304h464zm0-320h-464v-32a16.021 16.021 0 0 1 16-16h24v24a8 8 0 0 0 8 8h48a8 8 0 0 0 8-8v-24h96v24a8 8 0 0 0 8 8h48a8 8 0 0 0 8-8v-24h96v24a8 8 0 0 0 8 8h48a8 8 0 0 0 8-8v-24h24a16.021 16.021 0 0 1 16 16z" fill="url(#a)"/><path d="m232 232h48a8 8 0 0 0 8-8v-48a8 8 0 0 0 -8-8h-48a8 8 0 0 0 -8 8v48a8 8 0 0 0 8 8zm8-48h32v32h-32z" fill="url(#b)"/><path d="m152 232h48a8 8 0 0 0 8-8v-48a8 8 0 0 0 -8-8h-48a8 8 0 0 0 -8 8v48a8 8 0 0 0 8 8zm8-48h32v32h-32z" fill="url(#c)"/><path d="m72 232h48a8 8 0 0 0 8-8v-48a8 8 0 0 0 -8-8h-48a8 8 0 0 0 -8 8v48a8 8 0 0 0 8 8zm8-48h32v32h-32z" fill="url(#d)"/><path d="m312 232h48a8 8 0 0 0 8-8v-48a8 8 0 0 0 -8-8h-48a8 8 0 0 0 -8 8v48a8 8 0 0 0 8 8zm8-48h32v32h-32z" fill="url(#e)"/><path d="m392 232h48a8 8 0 0 0 8-8v-48a8 8 0 0 0 -8-8h-48a8 8 0 0 0 -8 8v48a8 8 0 0 0 8 8zm8-48h32v32h-32z" fill="url(#f)"/><path d="m232 312h48a8 8 0 0 0 8-8v-48a8 8 0 0 0 -8-8h-48a8 8 0 0 0 -8 8v48a8 8 0 0 0 8 8zm8-48h32v32h-32z" fill="url(#e)"/><path d="m152 312h48a8 8 0 0 0 8-8v-48a8 8 0 0 0 -8-8h-48a8 8 0 0 0 -8 8v48a8 8 0 0 0 8 8zm8-48h32v32h-32z" fill="url(#b)"/><path d="m72 312h48a8 8 0 0 0 8-8v-48a8 8 0 0 0 -8-8h-48a8 8 0 0 0 -8 8v48a8 8 0 0 0 8 8zm8-48h32v32h-32z" fill="url(#c)"/><path d="m312 312h48a8 8 0 0 0 8-8v-48a8 8 0 0 0 -8-8h-48a8 8 0 0 0 -8 8v48a8 8 0 0 0 8 8zm8-48h32v32h-32z" fill="url(#f)"/><path d="m392 312h48a8 8 0 0 0 8-8v-48a8 8 0 0 0 -8-8h-48a8 8 0 0 0 -8 8v48a8 8 0 0 0 8 8zm8-48h32v32h-32z" fill="url(#k)"/><path d="m232 392h48a8 8 0 0 0 8-8v-48a8 8 0 0 0 -8-8h-48a8 8 0 0 0 -8 8v48a8 8 0 0 0 8 8zm8-48h32v32h-32z" fill="url(#f)"/><path d="m152 392h48a8 8 0 0 0 8-8v-48a8 8 0 0 0 -8-8h-48a8 8 0 0 0 -8 8v48a8 8 0 0 0 8 8zm8-48h32v32h-32z" fill="url(#e)"/><path d="m72 392h48a8 8 0 0 0 8-8v-48a8 8 0 0 0 -8-8h-48a8 8 0 0 0 -8 8v48a8 8 0 0 0 8 8zm8-48h32v32h-32z" fill="url(#b)"/><path d="m312 392h48a8 8 0 0 0 8-8v-48a8 8 0 0 0 -8-8h-48a8 8 0 0 0 -8 8v48a8 8 0 0 0 8 8zm8-48h32v32h-32z" fill="url(#k)"/></g></svg>