<svg height="512" viewBox="0 0 512 512" width="512" xmlns="http://www.w3.org/2000/svg" xmlns:xlink="http://www.w3.org/1999/xlink"><linearGradient id="a" gradientUnits="userSpaceOnUse" x1="26.564" x2="547.593" y1="549.435" y2="28.407" data-name="New Gradient Swatch 1"><stop offset="0" stop-color="#003f8a"/><stop offset=".518" stop-color="#00d7df"/><stop offset="1" stop-color="#006df0"/></linearGradient><linearGradient id="b" x1="-89.435" x2="431.593" xlink:href="#a" y1="433.435" y2="-87.593"/><g><path d="m456 136h-112.01c5.32-12.13 8.01-22.83 8.01-32a96 96 0 0 0 -192 0c0 9.17 2.69 19.87 8.01 32h-112.01a48.051 48.051 0 0 0 -48 48v272a48.051 48.051 0 0 0 48 48h400a48.051 48.051 0 0 0 48-48v-272a48.051 48.051 0 0 0 -48-48zm-200-112a80.093 80.093 0 0 1 80 80c0 15.62-10.95 38.77-31.81 67.46-.02.03-.04.05-.06.08q-4.815 6.615-10.32 13.61c-14.88 18.9-29.92 35.14-37.81 43.39-7.89-8.25-22.93-24.49-37.81-43.39q-5.52-6.99-10.32-13.61c-.02-.03-.04-.05-.06-.08-20.86-28.69-31.81-51.84-31.81-67.46a80.093 80.093 0 0 1 80-80zm96 248h104v16h-104a8 8 0 0 0 -8 8v160h-16v-160a8 8 0 0 0 -8-8h-160a8 8 0 0 0 -8 8v160h-16v-112a8 8 0 0 0 -8-8h-72v-16h72a8 8 0 0 0 8-8v-128h16v80a8 8 0 0 0 8 8h160a8 8 0 0 0 8-8v-80h16v80a8 8 0 0 0 8 8zm8-16v-72h96v72zm96 48v152h-96v-152zm-144 0v152h-144v-152zm-192 48v104h-64v-104zm-64-48v-120h64v120zm112-48v-72h29.17q4.065 5.475 8.55 11.18a617.624 617.624 0 0 0 44.64 50.5 8.016 8.016 0 0 0 11.28 0 617.624 617.624 0 0 0 44.64-50.5q2.955-3.75 5.72-7.4v68.22zm320 200a32.042 32.042 0 0 1 -32 32h-400a32.036 32.036 0 0 1 -32-32v-272a32.036 32.036 0 0 1 32-32h120.08q4.335 7.68 9.84 16h-137.92a8 8 0 0 0 -8 8v288a8 8 0 0 0 8 8h416a8 8 0 0 0 8-8v-288a8 8 0 0 0 -8-8h-137.92q5.505-8.31 9.84-16h120.08a32.042 32.042 0 0 1 32 32z" fill="url(#a)"/><path d="m256 120a32 32 0 1 0 -32-32 32.036 32.036 0 0 0 32 32zm0-48a16 16 0 1 1 -16 16 16.019 16.019 0 0 1 16-16z" fill="url(#b)"/></g></svg>