<?xml version="1.0" encoding="iso-8859-1"?>
<!-- Generator: Adobe Illustrator 18.0.0, SVG Export Plug-In . SVG Version: 6.00 Build 0)  -->
<!DOCTYPE svg PUBLIC "-//W3C//DTD SVG 1.1//EN" "http://www.w3.org/Graphics/SVG/1.1/DTD/svg11.dtd">
<svg version="1.1" id="Capa_1" width="200px" height="80px" fill="#00095e" xmlns="http://www.w3.org/2000/svg" xmlns:xlink="http://www.w3.org/1999/xlink" x="0px" y="0px"
	 viewBox="0 0 317.029 317.029" style="enable-background:new 0 0 317.029 317.029;" xml:space="preserve">
<g>
	<path d="M316.314,146.104c-0.904-1.504-2.53-2.424-4.285-2.424h-18.071l8.973-17.062c0.815-1.55,0.76-3.413-0.146-4.912
		s-2.529-2.415-4.28-2.415H18.523c-1.751,0-3.375,0.916-4.28,2.415s-0.96,3.362-0.146,4.912l8.973,17.062H5
		c-1.751,0-3.375,0.916-4.28,2.415s-0.96,3.362-0.146,4.912l23.17,44.059c0.864,1.644,2.568,2.673,4.425,2.673h51.218
		c2.216,0,4.167-1.458,4.795-3.584c0.627-2.125-0.219-4.41-2.079-5.614l-23.48-15.192h199.779l-22.808,14.757
		c-1.86,1.204-2.707,3.488-2.079,5.614c0.628,2.125,2.58,3.584,4.795,3.584h50.546c1.85,0,3.548-1.021,4.416-2.655l23.17-43.624
		C317.268,149.476,317.219,147.608,316.314,146.104z M255.244,187.304l22.808-14.757c0.721-0.466,1.31-1.11,1.709-1.871
		l8.938-16.996h15.013l-17.859,33.624H255.244z M31.19,187.739L13.279,153.68h14.736c0.104,0,0.208-0.003,0.31-0.009l8.943,17.005
		c0.399,0.76,0.988,1.404,1.709,1.871l23.479,15.192H31.19z M44.713,163.349l-7.714-14.669l-10.197-19.39h263.425l-10.197,19.39
		l-7.714,14.669H44.713z"/>
</g>
<g>
</g>
<g>
</g>
<g>
</g>
<g>
</g>
<g>
</g>
<g>
</g>
<g>
</g>
<g>
</g>
<g>
</g>
<g>
</g>
<g>
</g>
<g>
</g>
<g>
</g>
<g>
</g>
<g>
</g>
</svg>
