<svg id="Capa_1" enable-background="new 0 0 512 512" height="512" viewBox="0 0 512 512" width="512" xmlns="http://www.w3.org/2000/svg"><g><path d="m512 19.065v270.57h-56.23v99.05l-109.15-99.04c-24.083.052 17.047-.04-201.62.45 0-32.541.06 11.468-.43-271.03z" fill="#4d578c"/><path d="m512 19.065v270.57h-56.23v99.05l-109.15-99.04-18.62.04v-270.62z" fill="#303a6d"/><path d="m367.4 123.315v270.56h-193.98l-109.15 99.06v-99.06h-64.27v-270.56z" fill="#4dc3ff"/><path d="m184 123.315h183.4v270.56h-183.4z" fill="#00a3ee"/><path d="m63.2 211.515h241v30h-241z" fill="#f0f7ff"/><path d="m184 211.515h120.2v30h-120.2z" fill="#dfe7f4"/><path d="m95.33 275.665h176.74v30h-176.74z" fill="#f0f7ff"/><path d="m184 275.665h88.07v30h-88.07z" fill="#dfe7f4"/></g></svg>