<svg id="Capa_1" enable-background="new 0 0 512 512" height="512" viewBox="0 0 512 512" width="512" xmlns="http://www.w3.org/2000/svg"><g><g><path d="m229.736 96.703c-4.142 0-7.5 3.357-7.5 7.5v114.759c-9.255 2.607-16.556 9.908-19.163 19.163h-74.353c-4.142 0-7.5 3.357-7.5 7.5s3.358 7.5 7.5 7.5h74.353c3.279 11.642 13.987 20.203 26.663 20.203 15.275 0 27.703-12.428 27.703-27.703 0-12.676-8.561-23.383-20.203-26.663v-114.759c0-4.143-3.358-7.5-7.5-7.5zm12.703 148.922c0 7.005-5.699 12.703-12.703 12.703s-12.703-5.698-12.703-12.703 5.699-12.703 12.703-12.703 12.703 5.698 12.703 12.703z"/><path d="m509.802 473.482-17.55-17.549 3.268-3.268c1.407-1.407 2.197-3.314 2.197-5.304 0-1.989-.79-3.896-2.197-5.304l-21.525-21.524c9.76-18.356 14.94-38.937 14.94-60.315 0-31.319-11.113-60.926-31.468-84.33 1.326-9.985 2.002-20.148 2.002-30.266 0-65.008-26.423-125.122-74.401-169.268-43.009-39.577-99.013-61.061-157.714-60.451-19.321.196-38.459 2.797-56.977 7.734l-8.897-15.012c-3.249-5.475-8.979-8.694-15.352-8.624-6.361.075-12.02 3.431-15.136 8.977l-42.08 74.87c-3.117 5.547-3.041 12.127.205 17.601 3.245 5.473 8.978 8.683 15.339 8.623l85.881-.979c6.364-.074 12.024-3.432 15.142-8.98 3.116-5.547 3.038-12.125-.206-17.593l-5.16-8.709c9.011-1.542 18.187-2.38 27.393-2.499 31.938-.381 63.371 8.017 90.872 24.358 3.561 2.115 8.162.944 10.279-2.616 2.116-3.561.944-8.163-2.616-10.278-29.876-17.755-64.009-26.929-98.728-26.462-13.764.177-27.47 1.838-40.739 4.936-2.327.543-4.255 2.163-5.193 4.36-.938 2.198-.772 4.711.446 6.767l10.543 17.794c.666 1.122.305 2.107.031 2.596-.275.489-.931 1.312-2.236 1.328l-85.881.979c-.012.001-.024.001-.036.001-1.28 0-1.945-.797-2.229-1.274-.286-.483-.671-1.464-.031-2.603l42.08-74.87c.64-1.139 1.675-1.319 2.236-1.326.579-.028 1.606.15 2.273 1.276l11.83 19.96c1.75 2.951 5.279 4.343 8.57 3.37 18.932-5.573 38.624-8.502 58.528-8.704 54.871-.55 107.215 19.506 147.405 56.489 44.855 41.273 69.558 97.466 69.558 158.23 0 5.572-.224 11.158-.656 16.715-7.714-6.598-16.032-12.129-24.756-16.605.001-1.679-.019-3.363-.061-5.041-1.326-51.941-24.497-101.662-63.573-136.413-3.094-2.751-7.835-2.474-10.588.62-2.752 3.096-2.475 7.836.621 10.589 35.507 31.577 56.74 76.564 58.472 123.678-45.47-16.339-98.362-6.334-134.73 30.034-24.312 24.312-37.701 56.636-37.701 91.019 0 20.869 4.941 40.976 14.256 58.998-5.305.485-10.659.736-16.013.736-96.126 0-174.329-78.204-174.329-174.329 0-4.143-3.358-7.5-7.5-7.5h-40.409c-4.142 0-7.5 3.357-7.5 7.5 0 60.825 23.526 118.145 66.244 161.401 6.698 6.779 13.877 13.193 21.338 19.063 3.254 2.559 7.969 1.999 10.532-1.257 2.561-3.256 1.999-7.971-1.257-10.532-6.972-5.485-13.682-11.479-19.941-17.816-38.168-38.647-59.943-89.304-61.788-143.359h25.429c3.95 100.935 87.297 181.829 189.183 181.829 8.222 0 16.448-.54 24.525-1.59 4.389 6.329 9.371 12.314 14.933 17.875 1.575 1.575 3.18 3.099 4.815 4.575-15.972 3.328-32.359 4.841-48.887 4.501-34.974-.725-69.678-10.19-100.36-27.375-3.615-2.024-8.185-.734-10.208 2.879-2.024 3.614-.735 8.185 2.878 10.209 32.822 18.382 69.953 28.509 107.378 29.283 1.646.035 3.29.052 4.934.052 20.208 0 40.182-2.602 59.492-7.745 21.432 14.174 46.201 21.261 70.977 21.261 20.744 0 41.491-4.977 60.277-14.918l21.564 21.563c1.464 1.464 3.384 2.196 5.303 2.196s3.839-.732 5.303-2.196l3.268-3.268 17.551 17.55c1.464 1.464 3.384 2.196 5.303 2.196s3.839-.732 5.303-2.196c2.929-2.93 2.929-7.678 0-10.607l-17.55-17.55 15.108-15.108 17.55 17.55c1.464 1.464 3.384 2.196 5.303 2.196s3.839-.732 5.303-2.196c2.927-2.931 2.927-7.679-.002-10.608zm-229.997-32.854c-21.479-21.478-33.307-50.036-33.307-80.411 0-30.376 11.829-58.933 33.307-80.412 22.169-22.17 51.29-33.255 80.411-33.255s58.242 11.085 80.412 33.255c21.479 21.478 33.307 50.036 33.307 80.412 0 30.375-11.829 58.932-33.307 80.411-44.34 44.34-116.485 44.34-160.823 0zm153.872 25.301c6.175-4.295 12.055-9.193 17.557-14.694 5.465-5.465 10.373-11.338 14.706-17.545l13.671 13.67-32.251 32.251z"/><path d="m428.373 292.059c-18.204-18.209-42.41-28.237-68.159-28.237s-49.955 10.028-68.158 28.236c-15.626 15.626-25.47 36.308-27.718 58.238-.422 4.12 2.576 7.803 6.696 8.226 4.118.42 7.803-2.576 8.226-6.696 1.897-18.508 10.208-35.967 23.403-49.161 15.371-15.376 35.809-23.843 57.551-23.843s42.18 8.467 57.552 23.844c15.375 15.371 23.843 35.809 23.843 57.552 0 21.741-8.467 42.18-23.844 57.552-15.371 15.375-35.809 23.843-57.551 23.843s-42.18-8.468-57.554-23.846c-9.547-9.539-16.619-21.384-20.453-34.255-1.182-3.969-5.356-6.228-9.329-5.047-3.97 1.182-6.229 5.358-5.047 9.328 4.543 15.255 12.921 29.288 24.224 40.582 18.204 18.209 42.41 28.237 68.159 28.237s49.955-10.028 68.157-28.236c18.209-18.203 28.237-42.409 28.237-68.158.001-25.751-10.027-49.957-28.235-68.159z"/></g></g></svg>