<svg enable-background="new 0 0 24 24" height="512" viewBox="0 0 24 24" width="512" xmlns="http://www.w3.org/2000/svg"><g id="Color"><g><path d="m1.75 6h12.5c.965 0 1.75-.785 1.75-1.75v-2.5c0-.965-.785-1.75-1.75-1.75h-12.5c-.965 0-1.75.785-1.75 1.75v2.5c0 .965.785 1.75 1.75 1.75z" fill="#03a9f4"/></g><g><path d="m1.75 22h10.5c.96 0 1.75-.79 1.75-1.75v-10c0-.96-.79-1.75-1.75-1.75h-10.5c-.96 0-1.75.79-1.75 1.75v10c0 .96.79 1.75 1.75 1.75z" fill="#eceff1"/></g><g><path d="m4.75 19c-.41 0-.75-.34-.75-.75v-.37c0-1.04.94-1.88 2.1-1.88h1.8c1.16 0 2.1.84 2.1 1.88v.37c0 .41-.34.75-.75.75z" fill="#03a9f4"/></g><g><circle cx="7" cy="13.5" fill="#03a9f4" r="1.5"/></g></g><g id="regular"><g><g><path d="m20.5 5c-1.378 0-2.5-1.121-2.5-2.5s1.122-2.5 2.5-2.5 2.5 1.121 2.5 2.5-1.122 2.5-2.5 2.5zm0-3.5c-.551 0-1 .448-1 1s.449 1 1 1 1-.448 1-1-.449-1-1-1z"/></g><g><path d="m23.25 6c-.192 0-.384-.073-.53-.22l-1.35-1.35c-.293-.293-.293-.768 0-1.061s.768-.293 1.061 0l1.35 1.35c.293.293.293.768 0 1.061-.147.147-.339.22-.531.22z"/></g></g><g><path d="m14.25 6h-12.5c-.965 0-1.75-.785-1.75-1.75v-2.5c0-.965.785-1.75 1.75-1.75h12.5c.965 0 1.75.785 1.75 1.75v2.5c0 .965-.785 1.75-1.75 1.75zm-12.5-4.5c-.138 0-.25.112-.25.25v2.5c0 .138.112.25.25.25h12.5c.138 0 .25-.112.25-.25v-2.5c0-.138-.112-.25-.25-.25z"/></g><g><path d="m23.25 10h-6.5c-.414 0-.75-.336-.75-.75s.336-.75.75-.75h6.5c.414 0 .75.336.75.75s-.336.75-.75.75z"/></g><g><path d="m23.25 13h-6.5c-.414 0-.75-.336-.75-.75s.336-.75.75-.75h6.5c.414 0 .75.336.75.75s-.336.75-.75.75z"/></g><g><path d="m23.25 16h-6.5c-.414 0-.75-.336-.75-.75s.336-.75.75-.75h6.5c.414 0 .75.336.75.75s-.336.75-.75.75z"/></g><g><path d="m23.25 19h-6.5c-.414 0-.75-.336-.75-.75s.336-.75.75-.75h6.5c.414 0 .75.336.75.75s-.336.75-.75.75z"/></g><g><path d="m23.25 22h-6.5c-.414 0-.75-.336-.75-.75s.336-.75.75-.75h6.5c.414 0 .75.336.75.75s-.336.75-.75.75z"/></g><g><path d="m12.25 22h-10.5c-.965 0-1.75-.785-1.75-1.75v-10c0-.965.785-1.75 1.75-1.75h10.5c.965 0 1.75.785 1.75 1.75v10c0 .965-.785 1.75-1.75 1.75zm-10.5-12c-.138 0-.25.112-.25.25v10c0 .138.112.25.25.25h10.5c.138 0 .25-.112.25-.25v-10c0-.138-.112-.25-.25-.25z"/></g><g><g><path d="m7 15c-.827 0-1.5-.673-1.5-1.5s.673-1.5 1.5-1.5 1.5.673 1.5 1.5-.673 1.5-1.5 1.5zm0-1.501v.002l.75-.001z"/></g><g><path d="m9.25 19c-.414 0-.75-.336-.75-.75v-.375c0-.177-.257-.375-.6-.375h-1.8c-.343 0-.6.198-.6.375v.375c0 .414-.336.75-.75.75s-.75-.336-.75-.75v-.375c0-1.034.942-1.875 2.1-1.875h1.8c1.158 0 2.1.841 2.1 1.875v.375c0 .414-.336.75-.75.75z"/></g></g></g></svg>