<svg id="Layer_1" height="512" viewBox="0 0 512 512" width="512" xmlns="http://www.w3.org/2000/svg" data-name="Layer 1"><path d="m66 448.63v-361a29.548 29.548 0 0 1 29.84-29.63h-30a29.548 29.548 0 0 0 -29.84 29.63v361c0 16.56 13.27 30.37 29.84 30.37h30c-16.57 0-29.84-13.81-29.84-30.37z" fill="#d4e1f4"/><g fill="#0635c9"><path d="m335.836 485c19.851 0 36.164-16.524 36.164-36.375v-64.625h-12v64.625a24.491 24.491 0 0 1 -24.164 24.375h-270c-13.236 0-23.836-11.141-23.836-24.375v-361a23.57 23.57 0 0 1 23.836-23.625h32.164v14.388c-9 2.636-16.565 11.406-16.565 21.8a22.6 22.6 0 1 0 45.209 0 22.185 22.185 0 0 0 -16.644-21.8v-14.388h51v14.388a22.324 22.324 0 0 0 -16.8 21.8 22.634 22.634 0 0 0 45.268 0 23.2 23.2 0 0 0 -16.468-21.8v-14.388h50v14.388c-9 2.636-16.542 11.406-16.542 21.8a22.6 22.6 0 1 0 45.2 0 22.2 22.2 0 0 0 -16.658-21.8v-14.388h51v14.388a22.3 22.3 0 0 0 -16.78 21.8 22.632 22.632 0 0 0 45.263 0c0-10.39-7.483-19.16-16.483-21.8v-14.388h37.836c13.233 0 24.164 10.392 24.164 23.625v236.375h12v-236.375c0-19.85-16.313-35.625-36.164-35.625h-37.836v-18.625a6 6 0 0 0 -12 0v18.625h-51v-18.625a6 6 0 0 0 -12 0v18.625h-50v-18.625a6 6 0 0 0 -12 0v18.625h-51v-18.625a6 6 0 0 0 -12 0v18.625h-32.164a35.582 35.582 0 0 0 -35.836 35.625v361c0 19.851 15.985 36.375 35.836 36.375zm-221.136-384.816a10.611 10.611 0 1 1 -10.61-10.61 10.622 10.622 0 0 1 10.61 10.61zm62.524 0a10.61 10.61 0 1 1 -10.611-10.61 10.623 10.623 0 0 1 10.611 10.61zm62.524 0a10.611 10.611 0 1 1 -10.61-10.61 10.622 10.622 0 0 1 10.61 10.61zm62.523 0a10.61 10.61 0 1 1 -10.61-10.61 10.622 10.622 0 0 1 10.61 10.61z"/><path d="m328.2 180h-150a6 6 0 0 0 0 12h150a6 6 0 0 0 0-12z"/><path d="m117.614 184.889-13.331 12.745-5.407-5.407a6 6 0 1 0 -8.484 8.485l9.555 9.556a6 6 0 0 0 8.389.094l17.571-16.8a6 6 0 1 0 -8.293-8.673z"/><path d="m108.2 156.9a40.722 40.722 0 1 0 40.722 40.721 40.767 40.767 0 0 0 -40.722-40.721zm0 69.443a28.722 28.722 0 1 1 28.722-28.722 28.754 28.754 0 0 1 -28.722 28.726z"/><path d="m334.2 286a6 6 0 0 0 -6-6h-150a6 6 0 0 0 0 12h150a6 6 0 0 0 6-6z"/><path d="m117.614 284.889-13.331 12.745-5.407-5.407a6 6 0 1 0 -8.484 8.485l9.555 9.556a6 6 0 0 0 8.389.094l17.571-16.8a6 6 0 1 0 -8.293-8.673z"/><path d="m108.2 256.9a40.722 40.722 0 1 0 40.722 40.721 40.767 40.767 0 0 0 -40.722-40.721zm0 69.443a28.722 28.722 0 1 1 28.722-28.722 28.754 28.754 0 0 1 -28.722 28.726z"/><path d="m279.3 386a6 6 0 0 0 -6-6h-95.1a6 6 0 0 0 0 12h95.1a6 6 0 0 0 6-6z"/><path d="m117.614 384.889-13.331 12.745-5.407-5.407a6 6 0 1 0 -8.484 8.485l9.555 9.556a6 6 0 0 0 8.389.094l17.571-16.8a6 6 0 1 0 -8.293-8.673z"/><path d="m108.2 356.9a40.722 40.722 0 1 0 40.722 40.721 40.767 40.767 0 0 0 -40.722-40.721zm0 69.443a28.722 28.722 0 1 1 28.722-28.722 28.754 28.754 0 0 1 -28.722 28.726z"/><path d="m178.2 212h80a6 6 0 0 0 0-12h-80a6 6 0 0 0 0 12z"/><path d="m178.2 312h80a6 6 0 0 0 0-12h-80a6 6 0 0 0 0 12z"/><path d="m178.2 400a6 6 0 0 0 0 12h80a6 6 0 0 0 0-12z"/><path d="m65 100.1a6 6 0 0 0 -12 0v6.3a6 6 0 0 0 12 0z"/><path d="m59 119.391a6 6 0 0 0 -6 6v58a6 6 0 0 0 12 0v-58a6 6 0 0 0 -6-6z"/></g><path d="m477.033 281.128a31.218 31.218 0 0 0 -43.233-8.948l-96.339 63.266a6 6 0 0 0 -1.439 8.7 6 6 0 0 0 8.026 1.327l89.218-58.589 7.257 11.046-151.155 99.27-7.259-11.047 28.4-18.647a6 6 0 0 0 -6.587-10.031l-33.389 21.925c-.061.041-.117.092-.179.135-.152.108-.3.216-.446.338s-.246.227-.365.346c-.072.073-.145.145-.213.221s-.133.126-.189.2-.088.137-.137.2c-.1.131-.187.269-.275.409-.063.1-.131.2-.188.306-.014.025-.031.046-.044.071l-23.012 43.479a6 6 0 0 0 5.3 8.807h.158l50.707-1.329c.123 0 .244-.024.366-.034s.261-.017.391-.037c.159-.024.313-.065.467-.1.114-.027.229-.046.343-.08a5.949 5.949 0 0 0 .767-.289c.061-.027.118-.065.178-.1a6 6 0 0 0 .566-.314c.02-.013.041-.02.059-.033l163.3-107.238a31.253 31.253 0 0 0 8.946-43.23zm-216.139 140.517 13.462-25.438 16.2 24.661zm42.322-3.37-.461-.7-6.8-10.344 151.157-99.265 7.258 11.045zm161.013-106.12-20.756-31.589a19.363 19.363 0 0 1 16.073.484 17.179 17.179 0 0 1 3.973 2.649 19.275 19.275 0 0 1 .71 28.456z" fill="#1ae5be"/></svg>