<?xml version="1.0"?>
<svg xmlns="http://www.w3.org/2000/svg" id="Layer_1" data-name="Layer 1" viewBox="0 0 512 512" width="512" height="512"><path d="M363.532,188.77a41.081,41.081,0,1,0-41.148-41.081A41.161,41.161,0,0,0,363.532,188.77Zm0-70.162a29.081,29.081,0,1,1-29.148,29.081A29.148,29.148,0,0,1,363.532,118.608Z"/><path d="M462.842,35H49.158A39.171,39.171,0,0,0,10,74.094V343.045a39.171,39.171,0,0,0,39.158,39.094H186.569V465h-32.48a6,6,0,1,0,0,12H363.878a6,6,0,0,0,0-12H325.431V382.139H462.842A39.171,39.171,0,0,0,502,343.045V74.094A39.171,39.171,0,0,0,462.842,35ZM49.158,47H462.842A27.157,27.157,0,0,1,490,74.094V306.829H448.32l-19.5-73.661a45.048,45.048,0,0,0-43.7-34.532H300.9l-59.975-22.859c-.056-.021-.112-.042-.169-.061a20.882,20.882,0,0,0-17.937,2.077,21.93,21.93,0,0,0-2.9,2.154l-36.861-40.282a6,6,0,0,0-8.853,8.1L213.4,190.6a20.857,20.857,0,0,0-.477,2.515c0,.039-.01.078-.014.116a21,21,0,0,0,15.1,22.729l56.719,20.423a85.1,85.1,0,0,0,22.934,4.841l.011,65.609H22V74.094A27.157,27.157,0,0,1,49.158,47ZM420.184,306.829l-8.792-34.975a9.243,9.243,0,0,0-18.207,2.254v32.721H319.669l-.012-71.4a6,6,0,0,0-6-6,73.205,73.205,0,0,1-24.868-4.341l-56.948-20.506q-.25-.09-.509-.158a8.954,8.954,0,0,1-6.5-9.88,8.827,8.827,0,0,1,.87-2.814l.022-.049a9.374,9.374,0,0,1,3.429-3.7,8.936,8.936,0,0,1,7.594-.959l60.911,23.216a6,6,0,0,0,2.137.393h85.328a33.072,33.072,0,0,1,32.054,25.442c.009.035.019.072.028.108l18.7,70.643Zm-12.374,0h-2.625V296.383ZM313.431,465H198.569V382.139H313.431Zm149.411-94.861H49.158A27.157,27.157,0,0,1,22,343.045V318.829H490v24.216A27.157,27.157,0,0,1,462.842,370.139Z"/><path d="M184.577,104.509h83.88a6,6,0,0,0,0-12h-83.88a6,6,0,0,0,0,12Z"/><path d="M163.1,104.509h.317a6,6,0,0,0,0-12H163.1a6,6,0,0,0,0,12Z"/><path d="M127.308,104.509h14a6,6,0,0,0,0-12h-14a6,6,0,0,0,0,12Z"/><path d="M64.457,104.509h38.965a6,6,0,0,0,0-12H64.457a6,6,0,1,0,0,12Z"/><path d="M268.457,146.429h-.068a6.034,6.034,0,1,0,.068,0Z"/><path d="M245.577,146.429H215.865a6,6,0,0,0,0,12h29.712a6,6,0,0,0,0-12Z"/><path d="M64.457,158.429h89.425a6,6,0,0,0,0-12H64.457a6,6,0,1,0,0,12Z"/><path d="M186.416,215.709h15.762a6,6,0,0,0,0-12H186.416a6,6,0,0,0,0,12Z"/><path d="M163.308,209.709a6,6,0,0,0-6-6H96.953a6,6,0,0,0,0,12h60.355A6,6,0,0,0,163.308,209.709Z"/><path d="M64.457,215.709h9.684a6,6,0,1,0,0-12H64.457a6,6,0,1,0,0,12Z"/><path d="M253.383,268.65h15.074a6,6,0,0,0,0-12H253.383a6,6,0,0,0,0,12Z"/><path d="M230.337,268.65h.233a6,6,0,0,0,0-12h-.233a6,6,0,0,0,0,12Z"/><path d="M111.194,262.65a6,6,0,0,0,6,6h91.759a6,6,0,0,0,0-12H117.194A6,6,0,0,0,111.194,262.65Z"/><path d="M64.457,268.65H93.838a6,6,0,0,0,0-12H64.457a6,6,0,1,0,0,12Z"/></svg>
