<?xml version="1.0" standalone="no"?>
<!DOCTYPE svg PUBLIC "-//W3C//DTD SVG 20010904//EN"
 "http://www.w3.org/TR/2001/REC-SVG-20010904/DTD/svg10.dtd">
<svg version="1.0" xmlns="http://www.w3.org/2000/svg"
 width="150px" height="50px" viewBox="0 0 1740.000000 614.000000"
 preserveAspectRatio="xMidYMid meet">
<metadata>
Created by potrace 1.16, written by Peter Selinger 2001-2019
</metadata>
<g transform="translate(0.000000,614.000000) scale(0.100000,-0.100000)"
fill="#000000" stroke="none">
<path d="M10920 3918 c-52 -16 -132 -40 -177 -54 l-83 -25 0 -175 0 -174 -160
0 -160 0 0 -130 0 -130 154 0 155 0 4 -437 c3 -381 6 -446 21 -497 26 -90 59
-147 111 -195 99 -91 217 -121 476 -121 l169 0 0 139 0 139 -31 6 c-17 3 -66
6 -108 6 -109 0 -189 21 -222 58 -44 49 -49 102 -49 517 l0 385 195 0 195 0 0
130 0 130 -195 0 -195 0 -2 229 -3 229 -95 -30z"/>
<path d="M7678 3519 c-353 -43 -595 -308 -639 -700 -29 -264 49 -508 215 -674
129 -129 271 -189 471 -201 175 -11 289 30 407 145 l68 67 0 -88 0 -88 190 0
190 0 0 755 0 755 -185 0 -185 0 0 -71 0 -72 -49 46 c-53 50 -142 98 -211 115
-69 17 -187 22 -272 11z m257 -313 c104 -27 174 -84 224 -184 103 -204 68
-552 -68 -682 -78 -74 -204 -108 -335 -89 -169 24 -278 122 -328 297 -24 82
-28 261 -9 342 41 168 148 286 288 319 58 14 172 12 228 -3z"/>
<path d="M9590 3519 c-258 -30 -475 -177 -580 -394 -151 -310 -100 -707 122
-951 221 -241 653 -305 981 -144 45 22 95 50 110 63 l29 22 -52 125 c-29 69
-54 130 -57 137 -3 7 -31 -6 -79 -37 -85 -55 -147 -79 -242 -91 -294 -37 -512
170 -512 486 0 90 23 195 57 265 39 79 124 161 198 190 72 28 214 38 296 21
68 -14 168 -61 221 -103 22 -17 43 -27 47 -22 5 5 37 60 71 122 73 131 76 120
-45 201 -89 59 -202 97 -334 110 -114 12 -124 12 -231 0z"/>
<path d="M12340 3519 c-137 -16 -278 -70 -384 -147 -113 -82 -217 -250 -257
-417 -18 -72 -22 -118 -22 -230 1 -169 20 -255 89 -394 90 -182 246 -305 459
-363 116 -31 365 -31 479 0 265 73 429 235 513 509 24 81 27 102 27 258 -1
144 -4 182 -22 250 -88 321 -303 500 -643 535 -113 11 -132 11 -239 -1z m291
-331 c92 -43 159 -125 201 -247 31 -90 33 -315 4 -401 -62 -182 -154 -267
-312 -289 -132 -19 -255 21 -338 109 -59 63 -94 137 -112 238 -53 297 61 548
275 609 74 21 216 11 282 -19z"/>
<path d="M14355 3520 c-119 -17 -260 -90 -325 -168 l-30 -37 0 88 0 87 -201 0
-201 0 6 -57 c20 -186 26 -476 26 -1210 l0 -823 185 0 185 0 0 369 0 369 55
-53 c196 -192 556 -192 786 0 227 190 330 578 243 920 -21 84 -94 230 -146
292 -84 101 -201 178 -311 207 -73 19 -198 27 -272 16z m145 -332 c66 -30 133
-95 166 -160 103 -203 71 -541 -64 -681 -99 -103 -275 -131 -410 -66 -135 66
-212 233 -212 459 0 111 22 226 55 291 22 42 90 114 132 140 91 56 233 64 333
17z"/>
<path d="M4350 3489 c-411 -13 -1023 -39 -1057 -45 -35 -7 -44 -28 -17 -38 19
-7 855 -36 1054 -36 l135 0 48 -132 c26 -72 46 -132 45 -133 -2 -2 -178 -8
-393 -14 -487 -15 -1086 -39 -1142 -46 -44 -6 -58 -27 -27 -39 19 -7 766 -32
1269 -42 l351 -7 33 -96 c19 -53 36 -102 38 -108 4 -10 -75 -13 -373 -13 -209
0 -512 -5 -674 -10 -453 -15 -1001 -39 -1042 -46 -40 -6 -51 -28 -20 -39 40
-12 890 -36 1512 -42 l655 -6 111 -306 111 -306 160 -3 160 -2 178 501 179
502 166 -499 167 -499 159 -3 159 -2 278 733 c153 404 281 744 284 755 5 22 5
22 -169 22 l-174 0 -169 -512 c-93 -282 -170 -515 -172 -517 -2 -2 -5 -2 -7 0
-3 2 -78 236 -168 519 l-164 515 -620 1 c-340 1 -729 -3 -864 -7z m1110 -136
c0 -5 -18 -63 -41 -131 l-41 -122 -216 2 -215 3 -33 97 c-17 53 -35 110 -39
127 l-7 31 296 0 c163 0 296 -3 296 -7z m-132 -405 c-3 -7 -41 -120 -84 -250
-43 -131 -81 -238 -84 -238 -5 0 -161 478 -160 493 0 4 75 7 166 7 129 0 165
-3 162 -12z"/>
</g>
</svg>
