<svg height="565pt" viewBox="-17 -49 565.33331 565" width="565pt" xmlns="http://www.w3.org/2000/svg"><path d="m521.539062 415.394531h-412.5c-32.433593-.035156-58.71875-26.320312-58.75-58.75v-350.097656c.003907-2.734375.199219-5.464844.578126-8.175781-28.984376 4.105468-50.539063 28.898437-50.578126 58.175781v350.097656c.03125 32.429688 26.316407 58.714844 58.75 58.75h412.5c29.277344-.035156 54.066407-21.59375 58.171876-50.582031-2.710938.386719-5.4375.574219-8.171876.582031zm0 0" fill="#d4e1f4"/><path d="m530 56.832031v350.097657c-.035156 32.4375-26.320312 58.722656-58.75 58.75h-412.5c-32.429688-.027344-58.7148438-26.3125-58.75-58.75v-350.097657c.0351562-32.429687 26.320312-58.714843 58.75-58.75h412.5c32.429688.035157 58.714844 26.320313 58.75 58.75zm-17.5 350.097657v-268.734376h-495v268.734376c.023438 22.773437 18.476562 41.230468 41.25 41.25h412.5c22.773438-.019532 41.226562-18.476563 41.25-41.25zm0-286.234376v-63.863281c-.023438-22.773437-18.476562-41.222656-41.25-41.25h-412.5c-22.773438.027344-41.226562 18.476563-41.25 41.25v63.863281zm0 0" fill="#0635c9"/><g fill="#1ae5be"><path d="m166.347656 206.496094c-2.800781 1.539062-4.546875 4.476562-4.546875 7.675781v58.871094c.058594 56.382812 33.464844 107.394531 85.121094 129.976562l12.925781 5.640625c1.105469.476563 2.292969.726563 3.492188.722656 1.191406 0 2.371094-.238281 3.472656-.714843l14.550781-6.28125c52.605469-22.105469 86.832031-73.605469 86.835938-130.664063v-57.550781c0-3.238281-1.785157-6.207031-4.636719-7.722656l-95.773438-51.042969c-2.601562-1.378906-5.726562-1.367188-8.316406.050781zm97.386719-33.414063 86.964844 46.339844v52.300781c-.015625 50.042969-30.042969 95.195313-76.1875 114.558594-.019531.003906-.042969.015625-.0625.023438l-11.085938 4.792968-9.425781-4.113281c-45.289062-19.792969-74.582031-64.511719-74.636719-113.941406v-53.695313zm0 0"/><path d="m241.609375 311.421875c3.082031 3.621094 8.492187 4.113281 12.179687 1.109375l58.648438-47.722656c2.503906-1.945313 3.757812-5.09375 3.273438-8.230469-.476563-3.132813-2.617188-5.765625-5.585938-6.875-2.972656-1.105469-6.304688-.519531-8.722656 1.53125l-52.027344 42.324219-19.640625-22.988282c-3.132813-3.671874-8.660156-4.113281-12.332031-.972656-3.675782 3.132813-4.117188 8.660156-.976563 12.332032zm0 0"/><path d="m206.890625 68.804688c-.035156 15.292968 12.320313 27.722656 27.609375 27.78125h.089844c15.289062.019531 27.699218-12.359376 27.722656-27.652344.023438-15.292969-12.355469-27.707032-27.648438-27.726563h-.074218c-15.253906.015625-27.632813 12.351563-27.699219 27.597657zm27.699219-10.097657h.023437c5.625.007813 10.183594 4.578125 10.171875 10.203125-.003906 5.625-4.570312 10.179688-10.195312 10.175782h-.039063c-5.625-.011719-10.179687-4.582032-10.171875-10.207032.011719-5.628906 4.582032-10.179687 10.210938-10.171875zm0 0"/><path d="m149.414062 96.320312h.085938c15.289062.023438 27.707031-12.351562 27.730469-27.640624.027343-15.292969-12.351563-27.710938-27.640625-27.734376-15.292969-.042968-27.722656 12.3125-27.777344 27.601563-.023438 15.285156 12.320312 27.707031 27.601562 27.773437zm-7.089843-34.910156c1.898437-1.90625 4.480469-2.976562 7.175781-2.964844h.035156c5.628906.007813 10.183594 4.578126 10.171875 10.203126-.011719 5.632812-4.582031 10.183593-10.207031 10.171874h-.027344c-4.121094-.007812-7.832031-2.5-9.394531-6.3125-1.566406-3.8125-.679687-8.199218 2.246094-11.097656zm0 0"/><path d="m44.914062 48.722656c-7.945312 7.890625-10.351562 19.796875-6.101562 30.15625 4.253906 10.363282 14.328125 17.140625 25.523438 17.179688h.085937c12.527344.003906 23.5-8.398438 26.753906-20.496094 3.257813-12.089844-2.011719-24.867188-12.839843-31.152344-10.835938-6.28125-24.539063-4.519531-33.421876 4.3125zm29.699219 19.671875c-.007812 5.621094-4.570312 10.167969-10.191406 10.164063h-.03125c-5.632813-.011719-10.1875-4.582032-10.175781-10.210938.007812-5.628906 4.578125-10.1875 10.207031-10.175781h.039063c5.621093.027344 10.164062 4.605469 10.152343 10.222656zm0 0"/></g></svg>